PathFileType	4	(X/Y/Z)	P:\Projects\LMB_grand_challenge_database\project_only\opensim\experimental_data\SixthCompetition/DM_ngait_og4_new.trc
DataRate	CameraRate	NumFrames	NumMarkers	Units	OrigDataRate	OrigDataStartFrame	OrigNumFrames
120	120	7	68	mm	120	46	374
Frame#	Time	Sternum			Neck			R_Shoulder			L_Shoulder			Xiphoid			Thoracic			R_Asis			L_Asis			R_Psis			L_Psis			Lumbar			R_Elbow			R_ElbowMedial			R_ShoulderAnterior			R_ShoulderPosterior			R_Wrist			R_Radius			R_Ulna			L_Elbow			L_ElbowMedial			L_ShoulderAnterior			L_ShoulderPosterior			L_Wrist			L_Ulna			L_Radius			L_Thigh_Superior			L_Thigh_Inferior			L_Thigh_Lateral			L_Knee_Lateral			L_Knee_Medial			L_Patella			L_Shank_Superior			L_Shank_Inferior			L_Shank_Lateral			L_Ankle_Lateral			L_Ankle_Medial			R_Thigh_Superior			R_Thigh_Inferior			R_Thigh_Lateral			R_Knee_Lateral			R_Knee_Medial			R_Patella			R_Shank_Superior			R_Shank_Inferior			R_Shank_Lateral			R_Ankle_Lateral			RankleMedial			R_Heel			R_Toe			R_Midfoot_Medial			R_Midfoot_Lateral			R_Hindfoot			R_Midfoot_Superior			R_ToeMedial			R_ToeLateral			L_Heel			L_Toe			L_Midfoot_Medial			L_Midfoot_Lateral			L_Hindfoot			L_Midfoot_Superior			L_ToeMedial			L_ToeLateral			Oglobal			Sacral			Xglobal			Yglobal			Zglobal			
		X1	Y1	Z1	X2	Y2	Z2	X3	Y3	Z3	X4	Y4	Z4	X5	Y5	Z5	X6	Y6	Z6	X7	Y7	Z7	X8	Y8	Z8	X9	Y9	Z9	X10	Y10	Z10	X11	Y11	Z11	X12	Y12	Z12	X13	Y13	Z13	X14	Y14	Z14	X15	Y15	Z15	X16	Y16	Z16	X17	Y17	Z17	X18	Y18	Z18	X19	Y19	Z19	X20	Y20	Z20	X21	Y21	Z21	X22	Y22	Z22	X23	Y23	Z23	X24	Y24	Z24	X25	Y25	Z25	X26	Y26	Z26	X27	Y27	Z27	X28	Y28	Z28	X29	Y29	Z29	X30	Y30	Z30	X31	Y31	Z31	X32	Y32	Z32	X33	Y33	Z33	X34	Y34	Z34	X35	Y35	Z35	X36	Y36	Z36	X37	Y37	Z37	X38	Y38	Z38	X39	Y39	Z39	X40	Y40	Z40	X41	Y41	Z41	X42	Y42	Z42	X43	Y43	Z43	X44	Y44	Z44	X45	Y45	Z45	X46	Y46	Z46	X47	Y47	Z47	X48	Y48	Z48	X49	Y49	Z49	X50	Y50	Z50	X51	Y51	Z51	X52	Y52	Z52	X53	Y53	Z53	X54	Y54	Z54	X55	Y55	Z55	X56	Y56	Z56	X57	Y57	Z57	X58	Y58	Z58	X59	Y59	Z59	X60	Y60	Z60	X61	Y61	Z61	X62	Y62	Z62	X63	Y63	Z63	X64	Y64	Z64	X65	Y65	Z65	X66	Y66	Z66	X67	Y67	Z67	X68	Y68	Z68	

47	2.608333	-949.323	1360.76	52.6806	-1116.06	1434.44	86.2139	-982.288	1401.98	233.495	-1079.61	1407.12	-97.8862	-925.744	1193.28	66.97920000000001	-1203.84	1248.31	93.01649999999999	-1016.96	963.963	226.899	-1004.34	962.58	-48.5132	-1215.68	1002.95	113.917	-1213.3	998.3440000000001	36.3252	-1212.28	1050.16	73.6504	-986.542	1089.63	342.845	-0	0	0	-0	0	0	-0	0	0	-894.537	830.633	296.838	-901.955	842.125	255.153	-937.207	824.2619999999999	314.207	-1207.96	1095.52	-185.598	-0	0	0	-0	0	0	-0	0	0	-1224.42	828.468	-221.065	-1266.23	852.802	-218.405	-1205.82	838.183	-178.25	-1023.82	798.097	-80.79300000000001	-914.631	608.965	-19.8395	-913.827	709.034	7.61885	-0	0	0	-0	0	0	-863.674	527.179	39.328	-914.249	448.903	-33.1795	-923.4880000000001	177.7	-39.4207	-895.652	305.249	37.9584	-0	0	0	-0	0	0	-1126.76	776.604	247.406	-1164.9	563.216	208.911	-1068.67	673.043	230.485	-0	0	0	-0	0	0	-1109.21	444.228	149.935	-1285.4	421.46	217.784	-1415.9	260.169	207.146	-1285.19	308.964	140.456	-0	0	0	-0	0	0	-1560.38	213.458	159.979	-1345.86	26.2551	142.723	-1420.37	42.5788	96.62730000000001	-1429.79	40.2864	213.497	-1510.99	116.272	206.002	-1402.34	142.464	158.322	-1384.5	31.1059	101.178	-1385.45	31.6799	192.659	-1001.03	62.9101	12.9613	-701.673	59.7843	12.3323	-782.303	40.2545	66.002	-792.375	34.5948	-47.8955	-897.7809999999999	27.5092	-41.531	-836.8440000000001	122.813	7.62302	-738.953	40.5642	55.7469	-737.436	40.6865	-39.3321	-0	0	0	-1214.49	1000.65	75.121	-200	0	0	-0	0	200	-0	200	0	
48	2.616667	-940.143	1361.88	52.2459	-1106.9	1435.88	85.1195	-973.516	1403.68	233.027	-1069.73	1407.99	-98.88679999999999	-916.75	1194.64	66.6183	-1194.86	1249.59	92.363	-1007.93	964.78	225.988	-995.2	964.575	-49.4904	-1206.64	1003.99	113.064	-1204.25	999.485	35.4858	-1203.35	1051.26	72.99339999999999	-980.5309999999999	1091.45	342.561	-0	0	0	-0	0	0	-0	0	0	-890.919	831.056	297.576	-897.1369999999999	842.838	256.023	-933.966	825.373	314.056	-1195.85	1095.43	-187.393	-0	0	0	-0	0	0	-0	0	0	-1210.75	828.4589999999999	-223.545	-1252.65	852.388	-220.382	-1191.46	838.299	-181.527	-1016.21	797.9	-81.8978	-908.51	608.35	-21.7629	-905.851	710.105	6.35977	-0	0	0	-0	0	0	-857.374	526.875	39.0632	-908.343	448.726	-33.0967	-921.866	177.656	-39.2303	-892.4059999999999	304.976	37.9022	-0	0	0	-0	0	0	-1114.75	776.0940000000001	245.15	-1148.27	562	207.501	-1054.97	673.837	229.53	-0	0	0	-0	0	0	-1091.57	443.508	148.861	-1268.81	423.778	216.263	-1403.49	266.047	206.305	-1270.53	311.161	139.993	-0	0	0	-0	0	0	-1546.7	226.62	159.228	-1343.11	25.0026	143.201	-1416.78	47.7088	96.559	-1426.28	46.4341	213.437	-1502.86	126.898	205.627	-1393.08	146.671	157.848	-1381.83	32.3654	100.965	-1382.72	33.3476	192.706	-1000.99	63.0375	12.9443	-701.561	59.3346	12.3201	-782.331	39.9033	66.0615	-792.367	34.3287	-47.8433	-897.699	27.5025	-41.5194	-836.595	122.637	7.70439	-738.759	40.198	55.5748	-737.408	40.3622	-39.3292	-0	0	0	-1205.44	1001.74	74.2748	-200	0	0	-0	0	200	-0	200	0	
49	2.625	-931.043	1363.13	52.0163	-1097.89	1437.31	84.2473	-965.002	1405.37	232.5	-1059.92	1408.73	-99.83450000000001	-907.869	1195.92	66.5146	-1185.99	1250.97	91.6614	-999.239	965.668	225.246	-986.149	966.5359999999999	-50.4891	-1197.78	1005.11	112.128	-1195.3	1000.7	34.5411	-1194.58	1052.45	72.19929999999999	-974.386	1093.18	342.079	-0	0	0	-0	0	0	-0	0	0	-887.652	831.917	298.849	-892.673	843.708	256.768	-930.966	826.647	314.292	-1183.38	1095.33	-189.089	-0	0	0	-0	0	0	-0	0	0	-1196.43	828.722	-226.275	-1238.65	852.155	-222.35	-1177.34	838.345	-183.879	-1009.08	798.437	-83.238	-902.977	607.504	-23.5162	-897.673	710.141	4.57724	-0	0	0	-0	0	0	-851.153	526.432	38.4972	-903.296	448.518	-33.3385	-920.952	177.505	-38.9725	-889.2619999999999	304.46	37.6915	-0	0	0	-0	0	0	-1103.17	776.076	243.525	-1131.82	561.022	206.411	-1040.31	674.505	227.626	-0	0	0	-0	0	0	-1073.77	443.188	147.695	-1252.23	426.427	215.013	-1390.13	272.42	205.424	-1255.29	313.948	139.829	-0	0	0	-0	0	0	-1531.65	239.727	158.213	-1340.47	23.0098	143.206	-1412.12	53.5323	96.0958	-1421.78	53.0831	212.967	-1493.54	137.791	204.851	-1382.82	151.109	157.177	-1378.19	35.2887	102.786	-1379.4	34.9586	192.962	-1001	63.0791	13.0706	-701.357	58.9613	12.3228	-782.592	40.0499	67.2474	-792.192	33.4988	-46.6431	-897.405	26.6381	-40.8982	-836.386	122.398	7.95524	-738.623	39.741	55.7202	-737.345	39.9849	-39.3587	-0	0	0	-1196.54	1002.9	73.3347	-200	0	0	-0	0	200	-0	200	0	
50	2.633333	-922.153	1364.39	51.9162	-1089.08	1438.76	83.4004	-956.885	1407.13	232.239	-1049.98	1409.71	-100.566	-899.3150000000001	1197.04	66.431	-1177.28	1252.39	90.92440000000001	-990.795	966.627	224.631	-977.049	968.672	-51.2085	-1189.13	1006.2	111.201	-1186.44	1001.9	33.5796	-1185.97	1053.61	71.41200000000001	-968.404	1094.92	341.881	-0	0	0	-0	0	0	-0	0	0	-884.29	832.593	299.76	-888.225	844.126	257.957	-927.6130000000001	827.748	314.592	-1170.73	1095.39	-190.806	-0	0	0	-0	0	0	-0	0	0	-1181.88	828.907	-228.712	-1224.13	851.792	-224.249	-1162.37	838.337	-185.918	-1001.64	799.1799999999999	-83.99460000000001	-898.314	605.674	-24.8837	-889.145	708.947	2.34189	-0	0	0	-0	0	0	-843.312	528.168	39.7687	-899.2380000000001	448.275	-33.8118	-920.4	177.261	-38.678	-886.37	303.748	37.4991	-0	0	0	-0	0	0	-1090.2	773.567	244.601	-1114.76	560.102	205.027	-1026.29	675.458	226.613	-0	0	0	-0	0	0	-1055.78	442.95	146.771	-1235.47	429.597	213.934	-1376.29	278.706	204.504	-1239.54	317.077	139.625	-0	0	0	-0	0	0	-1515.54	252.302	156.716	-1337.73	20.6418	144.121	-1405.73	59.8576	95.7105	-1415.99	60.2589	212.531	-1483.41	148.648	203.917	-1371.56	155.885	156.688	-1372.33	37.6334	102.826	-1375.78	36.5751	192.926	-1001.03	63.1156	13.0787	-701.289	58.6179	12.2611	-782.552	39.1395	66.5753	-792.412	33.6098	-47.3472	-897.533	27.254	-41.2299	-836.165	122.167	8.121840000000001	-738.8099999999999	39.7341	55.8196	-737.266	39.7209	-39.3795	-0	0	0	-1187.78	1004.05	72.39019999999999	-200	0	0	-0	0	200	-0	200	0	
51	2.641667	-913.451	1365.68	51.9538	-1080.46	1440.2	82.571	-948.859	1408.89	232.026	-1040.2	1410.84	-101.327	-890.745	1198.56	66.4924	-1168.71	1253.82	90.01600000000001	-982.384	967.676	223.774	-968.001	970.702	-51.9708	-1180.53	1007.28	110.026	-1177.66	1003.17	32.4388	-1177.38	1054.79	70.426	-962.571	1096.67	341.835	-0	0	0	-0	0	0	-0	0	0	-880.617	833.362	300.66	-884.7430000000001	844.6900000000001	258.452	-924.51	829.109	315.258	-1157.83	1095.5	-192.609	-0	0	0	-0	0	0	-0	0	0	-1166.66	829.074	-231.169	-1208.95	851.332	-226.159	-1146.79	838.4450000000001	-188.555	-993.456	800.186	-84.1562	-894.313	603.755	-26.0228	-880.732	706.255	-0.301625	-0	0	0	-0	0	0	-838.8200000000001	527.032	39.0335	-896.523	447.819	-34.8038	-920.09	176.999	-38.5403	-883.474	303.09	36.989	-0	0	0	-0	0	0	-1078.82	773.551	244.505	-1097.96	559.963	203.994	-1012.72	676.765	226.001	-0	0	0	-0	0	0	-1037.83	443.522	146.155	-1218.47	433.018	212.827	-1361.73	284.659	203.389	-1223.24	320.464	139.509	-0	0	0	-0	0	0	-1498.91	263.711	154.489	-1334.72	18.3616	144.645	-1397.35	66.2593	95.2015	-1409.26	67.29519999999999	211.861	-1472.76	158.774	202.356	-1359.69	160.73	156.602	-1366.66	39.1622	102.933	-1371.72	37.7969	192.891	-1000.96	63.1043	13.1435	-701.157	58.3769	12.3286	-782.443	38.5278	66.1871	-792.476	33.6454	-47.7498	-897.724	27.4806	-41.4222	-836.027	121.953	8.2745	-738.696	39.5314	55.8946	-737.0069999999999	39.3866	-39.2752	-0	0	0	-1179.1	1005.23	71.23220000000001	-200	0	0	-0	0	200	-0	200	0	
52	2.65	-904.831	1366.99	52.2182	-1072.05	1441.64	81.7527	-941.314	1410.61	231.999	-1030.82	1412.14	-101.797	-882.2569999999999	1200.03	66.70480000000001	-1160.26	1255.22	88.919	-974.143	968.846	222.815	-959.128	972.856	-52.739	-1172.12	1008.55	108.801	-1169.09	1004.56	31.1981	-1168.95	1056.12	69.3853	-956.905	1098.38	341.792	-0	0	0	-0	0	0	-0	0	0	-876.953	833.986	301.496	-880.8339999999999	845.3099999999999	259.315	-920.854	830.51	315.819	-1144.64	1095.66	-194.371	-0	0	0	-0	0	0	-0	0	0	-1150.97	829.234	-233.249	-1193.46	850.974	-228.254	-1130.85	838.777	-190.931	-985.4829999999999	801.369	-84.2701	-891.102	601.881	-27.2035	-873.692	703.803	-3.95556	-0	0	0	-0	0	0	-835.2140000000001	525.341	37.9068	-894.561	447.36	-36.0503	-920.193	176.86	-38.343	-880.779	302.868	36.1611	-0	0	0	-0	0	0	-1067.48	774.1180000000001	243.042	-1081.75	560.221	203.273	-999.2809999999999	678.615	225.498	-0	0	0	-0	0	0	-1019.83	444.28	146.014	-1201.27	436.265	211.914	-1347.14	290.765	202.28	-1206.67	323.832	139.58	-0	0	0	-0	0	0	-1482.03	273.854	151.636	-1331.73	16.2462	146.112	-1388.27	71.9765	94.45350000000001	-1402.4	73.7102	210.857	-1461.4	167.859	200.04	-1347.75	164.852	156.522	-1360.25	40.9396	103.38	-1368.16	39.9864	193.44	-1001.03	63.1315	13.1332	-701.164	58.1594	12.2027	-782.5700000000001	38.1636	66.2102	-792.573	33.4618	-47.7369	-897.759	27.5066	-41.4244	-835.912	121.786	8.399369999999999	-738.729	39.4047	55.8453	-737.148	39.2888	-39.321	-0	0	0	-1170.61	1006.56	69.9995	-200	0	0	-0	0	200	-0	200	0	
53	2.658333	-896.138	1368.56	52.475	-1063.84	1443.18	81.024	-933.876	1412.36	232.093	-1020.92	1413.28	-102.505	-873.774	1201.61	66.82089999999999	-1152.03	1256.71	87.9003	-965.9930000000001	970.114	221.909	-950.225	974.9690000000001	-53.4414	-1163.74	1009.88	107.51	-1160.55	1006.04	29.8243	-1160.52	1057.52	68.2701	-951.362	1099.99	341.849	-0	0	0	-0	0	0	-0	0	0	-873.22	835.038	302.579	-876.6799999999999	846.0940000000001	260.446	-917.984	832.164	317.638	-1131.21	1095.84	-196.087	-0	0	0	-0	0	0	-0	0	0	-1134.74	829.443	-235.359	-1177.49	850.7380000000001	-230.106	-1114.6	839.063	-193.504	-977.881	802.965	-85.1109	-888.01	600.0170000000001	-28.275	-867.397	700.691	-7.99234	-0	0	0	-0	0	0	-832.021	523.843	36.9089	-893.474	447.027	-37.5066	-919.817	176.703	-38.4063	-878.224	302.756	34.8858	-0	0	0	-0	0	0	-1056.11	774.778	241.912	-1065.34	560.646	202.639	-985.7140000000001	680.824	224.941	-0	0	0	-0	0	0	-1001.86	445.368	146.122	-1183.63	439.47	211.356	-1331.9	296.359	201.24	-1189.77	326.947	139.751	-0	0	0	-0	0	0	-1465.05	281.828	147.408	-1325.2	17.846	148.567	-1376.75	76.2993	94.70650000000001	-1394.21	79.6078	210.622	-1449.5	175.669	197.245	-1334.83	168.28	157.174	-1350.7	43.6266	105.153	-1360.99	44.1473	194.659	-1000.45	62.6694	14.131	-701.146	57.9256	12.1992	-781.525	37.9592	65.3935	-792.39	33.8707	-48.4983	-897.795	27.4688	-41.4353	-835.797	121.669	8.47334	-738.672	39.2093	55.8659	-737.1079999999999	39.1322	-39.3631	-0	0	0	-1162.14	1007.96	68.6673	-200	0	0	-0	0	200	-0	200	0	
